<svg width="115" height="24" viewBox="0 0 115 24" fill="none" xmlns="http://www.w3.org/2000/svg">
<path d="M3.06002 20.88C2.70002 21.16 2.40002 21.27 2.16002 21.21C1.92002 21.15 1.79002 21 1.77002 20.76C1.77002 20.5 1.95002 20.23 2.31002 19.95C1.89002 20.09 1.54002 20.09 1.26002 19.95C0.980017 19.79 0.780017 19.56 0.660017 19.26C0.560017 18.96 0.570017 18.66 0.690017 18.36C0.810017 18.06 1.07002 17.84 1.47002 17.7C1.03002 17.72 0.690017 17.59 0.450017 17.31C0.210017 17.03 0.0700171 16.69 0.0300171 16.29C0.0100171 15.89 0.100017 15.53 0.300017 15.21C0.500017 14.89 0.820017 14.71 1.26002 14.67C0.840017 14.63 0.540017 14.43 0.360017 14.07C0.200017 13.71 0.140017 13.31 0.180017 12.87C0.240017 12.43 0.390017 12.06 0.630017 11.76C0.890017 11.44 1.23002 11.31 1.65002 11.37C1.29002 11.17 1.07002 10.91 0.990017 10.59C0.930017 10.27 0.970017 9.96999 1.11002 9.68999C1.27002 9.40999 1.49002 9.21999 1.77002 9.11999C2.07002 8.99999 2.41002 9.03999 2.79002 9.23999C2.59002 8.91999 2.56002 8.60999 2.70002 8.30999C2.86002 7.98999 3.10002 7.72999 3.42002 7.52999C3.74002 7.32999 4.07002 7.23999 4.41002 7.25999C4.75002 7.25999 5.02002 7.41999 5.22002 7.73999C5.24002 7.47999 5.40002 7.28999 5.70002 7.16999C6.00002 7.04999 6.36002 6.98999 6.78002 6.98999C7.22002 6.96999 7.65002 7.00999 8.07002 7.10999C8.49002 7.18999 8.84002 7.31999 9.12002 7.49999C9.40002 7.65999 9.53002 7.86999 9.51002 8.12999C9.55002 7.78999 9.64002 7.52999 9.78002 7.34999C9.94002 7.14999 10.12 7.02999 10.32 6.98999C10.34 6.64999 10.46 6.34999 10.68 6.08999C10.9 5.82999 11.18 5.72999 11.52 5.78999C11.14 5.74999 10.85 5.56999 10.65 5.24999C10.47 4.90999 10.38 4.52999 10.38 4.10999C10.4 3.68999 10.51 3.32999 10.71 3.02999C10.93 2.70999 11.24 2.54999 11.64 2.54999C11.38 2.04999 11.26 1.68999 11.28 1.46999C11.32 1.22999 11.45 1.15999 11.67 1.25999C11.89 1.33999 12.14 1.62999 12.42 2.12999C12.42 1.78999 12.57 1.53999 12.87 1.37999C13.19 1.21999 13.55 1.13999 13.95 1.13999C14.35 1.13999 14.7 1.21999 15 1.37999C15.32 1.53999 15.48 1.78999 15.48 2.12999C15.68 1.94999 15.92 1.91999 16.2 2.03999C16.5 2.15999 16.77 2.35999 17.01 2.63999C17.25 2.91999 17.41 3.20999 17.49 3.50999C17.57 3.80999 17.51 4.04999 17.31 4.22999C17.65 4.22999 17.9 4.42999 18.06 4.82999C18.22 5.20999 18.3 5.64999 18.3 6.14999C18.3 6.64999 18.22 7.09999 18.06 7.49999C17.9 7.87999 17.65 8.06999 17.31 8.06999C17.61 8.06999 17.84 8.22999 18 8.54999C18.18 8.84999 18.3 9.22999 18.36 9.68999C18.42 10.13 18.42 10.58 18.36 11.04C18.3 11.48 18.18 11.86 18 12.18C17.84 12.48 17.61 12.63 17.31 12.63C17.77 12.63 18.07 12.73 18.21 12.93C18.37 13.13 18.37 13.33 18.21 13.53C18.07 13.73 17.77 13.83 17.31 13.83C17.89 13.83 18.27 13.98 18.45 14.28C18.65 14.58 18.65 14.88 18.45 15.18C18.27 15.48 17.89 15.63 17.31 15.63C17.55 15.63 17.74 15.77 17.88 16.05C18.04 16.33 18.14 16.68 18.18 17.1C18.24 17.52 18.24 17.94 18.18 18.36C18.14 18.78 18.04 19.13 17.88 19.41C17.74 19.69 17.55 19.83 17.31 19.83C17.75 19.89 18.06 20.04 18.24 20.28C18.44 20.52 18.52 20.78 18.48 21.06C18.44 21.34 18.29 21.57 18.03 21.75C17.79 21.93 17.45 21.99 17.01 21.93C17.01 22.25 16.89 22.49 16.65 22.65C16.43 22.79 16.17 22.86 15.87 22.86C15.59 22.86 15.33 22.79 15.09 22.65C14.87 22.49 14.76 22.25 14.76 21.93C14.72 22.29 14.55 22.54 14.25 22.68C13.97 22.82 13.65 22.87 13.29 22.83C12.95 22.79 12.65 22.67 12.39 22.47C12.15 22.27 12.05 22 12.09 21.66C12.09 22.06 11.97 22.36 11.73 22.56C11.51 22.76 11.25 22.87 10.95 22.89C10.65 22.91 10.37 22.84 10.11 22.68C9.87002 22.52 9.71002 22.27 9.63002 21.93C9.61002 22.37 9.32002 22.67 8.76002 22.83C8.22002 22.99 7.46002 22.93 6.48002 22.65C5.50002 22.37 4.36002 21.78 3.06002 20.88ZM11.67 14.82C11.39 14.82 11.22 14.7 11.16 14.46C11.1 14.22 11.17 14.04 11.37 13.92C11.17 13.92 10.95 13.82 10.71 13.62C10.47 13.4 10.26 13.15 10.08 12.87C9.92002 12.59 9.82002 12.32 9.78002 12.06C9.60002 12.24 9.35002 12.36 9.03002 12.42C8.71002 12.48 8.44002 12.45 8.22002 12.33C8.28002 12.59 8.26002 12.9 8.16002 13.26C8.08002 13.62 7.95002 13.93 7.77002 14.19C7.59002 14.45 7.41002 14.55 7.23002 14.49C7.39002 14.53 7.51002 14.68 7.59002 14.94C7.67002 15.2 7.70002 15.47 7.68002 15.75C7.66002 16.03 7.58002 16.24 7.44002 16.38C7.70002 16.36 8.03002 16.48 8.43002 16.74C8.85002 16.98 9.25002 17.24 9.63002 17.52C10.01 17.8 10.28 17.99 10.44 18.09C10.24 17.93 10.17 17.68 10.23 17.34C10.31 17 10.46 16.68 10.68 16.38C10.9 16.06 11.13 15.89 11.37 15.87C11.05 15.77 10.92 15.57 10.98 15.27C11.04 14.95 11.27 14.8 11.67 14.82ZM21.514 19.83C20.934 19.83 20.544 19.71 20.344 19.47C20.144 19.23 20.144 18.99 20.344 18.75C20.544 18.51 20.934 18.39 21.514 18.39C21.114 18.39 20.814 18.26 20.614 18C20.414 17.72 20.314 17.41 20.314 17.07C20.314 16.73 20.414 16.43 20.614 16.17C20.814 15.89 21.114 15.75 21.514 15.75C21.174 15.75 20.894 15.59 20.674 15.27C20.474 14.95 20.334 14.56 20.254 14.1C20.194 13.64 20.194 13.18 20.254 12.72C20.334 12.26 20.474 11.87 20.674 11.55C20.894 11.23 21.174 11.07 21.514 11.07C21.254 11.07 21.034 10.93 20.854 10.65C20.694 10.35 20.584 9.98999 20.524 9.56999C20.484 9.12999 20.484 8.69999 20.524 8.27999C20.584 7.83999 20.694 7.47999 20.854 7.19999C21.034 6.89999 21.254 6.74999 21.514 6.74999C21.114 6.74999 20.814 6.60999 20.614 6.32999C20.414 6.02999 20.314 5.68999 20.314 5.30999C20.314 4.92999 20.414 4.59999 20.614 4.31999C20.814 4.01999 21.114 3.86999 21.514 3.86999C21.034 3.90999 20.694 3.78999 20.494 3.50999C20.314 3.22999 20.284 2.92999 20.404 2.60999C20.544 2.28999 20.854 2.10999 21.334 2.06999C21.354 1.72999 21.464 1.47999 21.664 1.31999C21.884 1.13999 22.124 1.05999 22.384 1.07999C22.644 1.07999 22.874 1.16999 23.074 1.34999C23.274 1.52999 23.374 1.78999 23.374 2.12999C23.354 1.74999 23.514 1.44999 23.854 1.22999C24.214 1.00999 24.624 0.889992 25.084 0.869991C25.564 0.849991 25.984 0.929991 26.344 1.10999C26.724 1.28999 26.924 1.56999 26.944 1.94999C27.304 1.96999 27.564 2.18999 27.724 2.60999C27.904 3.00999 27.994 3.47999 27.994 4.01999C27.994 4.55999 27.894 5.02999 27.694 5.42999C27.514 5.82999 27.244 6.02999 26.884 6.02999C27.204 6.02999 27.444 6.18999 27.604 6.50999C27.764 6.80999 27.844 7.16999 27.844 7.58999C27.844 8.00999 27.764 8.37999 27.604 8.69999C27.444 8.99999 27.204 9.14999 26.884 9.14999C27.244 9.12999 27.514 9.29999 27.694 9.65999C27.874 9.99999 27.954 10.35 27.934 10.71C27.994 10.73 28.044 10.76 28.084 10.8C28.144 10.44 28.334 10.14 28.654 9.89999C28.994 9.65999 29.354 9.65999 29.734 9.89999C29.454 9.71999 29.334 9.48999 29.374 9.20999C29.434 8.90999 29.574 8.66999 29.794 8.48999C30.034 8.30999 30.304 8.30999 30.604 8.48999C30.544 8.16999 30.664 7.89999 30.964 7.67999C31.284 7.43999 31.664 7.27999 32.104 7.19999C32.564 7.09999 32.974 7.09999 33.334 7.19999C33.714 7.29999 33.934 7.50999 33.994 7.82999C33.994 7.36999 34.114 7.06999 34.354 6.92999C34.594 6.76999 34.834 6.76999 35.074 6.92999C35.314 7.06999 35.434 7.36999 35.434 7.82999C35.414 7.32999 35.544 6.99999 35.824 6.83999C36.124 6.65999 36.424 6.64999 36.724 6.80999C37.024 6.96999 37.174 7.29999 37.174 7.79999C37.434 7.97999 37.544 8.23999 37.504 8.57999C37.464 8.91999 37.324 9.25999 37.084 9.59999C36.864 9.91999 36.604 10.16 36.304 10.32C36.004 10.46 35.724 10.44 35.464 10.26C35.764 10.48 35.864 10.83 35.764 11.31C35.664 11.77 35.444 12.23 35.104 12.69C34.784 13.13 34.434 13.45 34.054 13.65C34.394 13.79 34.654 14.05 34.834 14.43C35.014 14.79 35.074 15.16 35.014 15.54C34.954 15.9 34.734 16.16 34.354 16.32C34.634 16.2 34.944 16.27 35.284 16.53C35.644 16.77 35.954 17.11 36.214 17.55C36.494 17.97 36.664 18.39 36.724 18.81C36.784 19.21 36.674 19.5 36.394 19.68C36.694 19.5 36.994 19.48 37.294 19.62C37.594 19.74 37.834 19.95 38.014 20.25C38.194 20.53 38.274 20.83 38.254 21.15C38.254 21.47 38.104 21.73 37.804 21.93C37.804 22.33 37.624 22.63 37.264 22.83C36.924 23.03 36.524 23.13 36.064 23.13C35.624 23.13 35.224 23.03 34.864 22.83C34.524 22.63 34.354 22.33 34.354 21.93C34.314 22.31 34.124 22.57 33.784 22.71C33.444 22.87 33.064 22.92 32.644 22.86C32.244 22.82 31.894 22.69 31.594 22.47C31.294 22.25 31.164 21.95 31.204 21.57C30.764 21.83 30.414 21.91 30.154 21.81C29.894 21.71 29.784 21.53 29.824 21.27C29.864 20.99 30.094 20.72 30.514 20.46C30.294 20.6 30.024 20.56 29.704 20.34C29.404 20.12 29.114 19.81 28.834 19.41C28.554 19.01 28.334 18.6 28.174 18.18C27.894 18.4 27.604 18.47 27.304 18.39C27.484 18.63 27.584 18.97 27.604 19.41C27.644 19.85 27.604 20.25 27.484 20.61C27.364 20.97 27.164 21.15 26.884 21.15C27.084 21.59 27.064 21.95 26.824 22.23C26.604 22.49 26.314 22.62 25.954 22.62C25.614 22.6 25.344 22.37 25.144 21.93C25.144 22.23 25.024 22.46 24.784 22.62C24.564 22.78 24.304 22.86 24.004 22.86C23.724 22.86 23.464 22.78 23.224 22.62C23.004 22.46 22.894 22.23 22.894 21.93C22.894 22.47 22.784 22.8 22.564 22.92C22.344 23.06 22.114 22.89 21.874 22.41C21.654 21.93 21.534 21.07 21.514 19.83ZM40.7913 18.06C40.4713 18.06 40.2313 17.86 40.0713 17.46C39.9313 17.04 39.8613 16.56 39.8613 16.02C39.8613 15.48 39.9313 15.01 40.0713 14.61C40.2313 14.19 40.4713 13.98 40.7913 13.98C40.4313 13.98 40.1513 13.8 39.9513 13.44C39.7713 13.08 39.6813 12.67 39.6813 12.21C39.6813 11.73 39.7713 11.31 39.9513 10.95C40.1513 10.59 40.4313 10.41 40.7913 10.41C40.5513 10.27 40.4413 10.04 40.4613 9.71999C40.5013 9.37999 40.6113 9.03999 40.7913 8.69999C40.9913 8.35999 41.2213 8.09999 41.4813 7.91999C41.7613 7.71999 42.0213 7.68999 42.2613 7.82999C42.2613 7.44999 42.3713 7.16999 42.5913 6.98999C42.8313 6.78999 43.0913 6.68999 43.3713 6.68999C43.6713 6.68999 43.9313 6.78999 44.1513 6.98999C44.3913 7.16999 44.5113 7.44999 44.5113 7.82999C44.5113 7.32999 44.6013 6.99999 44.7813 6.83999C44.9813 6.67999 45.1813 6.67999 45.3813 6.83999C45.5813 6.99999 45.6813 7.32999 45.6813 7.82999C45.9813 7.62999 46.2413 7.57999 46.4613 7.67999C46.7013 7.75999 46.8613 7.89999 46.9413 8.09999C47.2613 7.81999 47.6613 7.58999 48.1413 7.40999C48.6413 7.22999 49.1013 7.13999 49.5213 7.13999C49.9413 7.13999 50.2113 7.28999 50.3313 7.58999C50.4113 7.32999 50.6113 7.16999 50.9313 7.10999C51.2713 7.04999 51.6513 7.05999 52.0713 7.13999C52.4913 7.21999 52.9013 7.34999 53.3013 7.52999C53.7013 7.70999 54.0113 7.91999 54.2313 8.15999C54.4713 8.39999 54.5513 8.64999 54.4713 8.90999C54.8713 8.70999 55.2013 8.63999 55.4613 8.69999C55.7413 8.63999 55.9913 8.72999 56.2113 8.96999C56.0713 8.70999 56.0513 8.47999 56.1513 8.27999C56.2513 8.07999 56.4213 7.97999 56.6613 7.97999C56.9013 7.97999 57.1513 8.11999 57.4113 8.39999C57.3113 8.11999 57.3513 7.85999 57.5313 7.61999C57.7313 7.37999 57.9913 7.19999 58.3113 7.07999C58.6513 6.95999 58.9713 6.92999 59.2713 6.98999C59.5713 7.04999 59.7713 7.22999 59.8713 7.52999C59.9713 7.26999 60.2113 7.12999 60.5913 7.10999C60.9713 7.06999 61.3813 7.12999 61.8213 7.28999C62.2813 7.44999 62.6613 7.65999 62.9613 7.91999C63.2613 8.15999 63.3613 8.40999 63.2613 8.66999C63.6013 8.52999 63.9313 8.57999 64.2513 8.81999C64.5713 9.05999 64.8313 9.39999 65.0313 9.83999C65.2313 10.26 65.3213 10.67 65.3013 11.07C65.2813 11.47 65.1013 11.75 64.7613 11.91C65.1013 11.89 65.3813 12.03 65.6013 12.33C65.8213 12.61 65.9713 12.97 66.0513 13.41C66.1313 13.83 66.1413 14.26 66.0813 14.7C66.0213 15.12 65.8913 15.48 65.6913 15.78C65.4913 16.08 65.2213 16.23 64.8813 16.23C65.4613 16.23 65.8413 16.37 66.0213 16.65C66.2213 16.93 66.2213 17.21 66.0213 17.49C65.8413 17.77 65.4613 17.91 64.8813 17.91C65.2013 17.91 65.4413 18.03 65.6013 18.27C65.7613 18.49 65.8413 18.75 65.8413 19.05C65.8413 19.35 65.7613 19.62 65.6013 19.86C65.4413 20.08 65.2013 20.19 64.8813 20.19C65.3213 20.33 65.5713 20.57 65.6313 20.91C65.6913 21.25 65.6013 21.54 65.3613 21.78C65.1213 22.02 64.7813 22.07 64.3413 21.93C64.3413 22.33 64.1913 22.63 63.8913 22.83C63.5913 23.03 63.2413 23.13 62.8413 23.13C62.4413 23.13 62.0913 23.03 61.7913 22.83C61.4913 22.63 61.3413 22.33 61.3413 21.93C61.3213 22.33 61.1513 22.59 60.8313 22.71C60.5313 22.85 60.2213 22.84 59.9013 22.68C59.6013 22.54 59.4613 22.27 59.4813 21.87C59.1613 21.87 58.9213 21.71 58.7613 21.39C58.6213 21.05 58.5513 20.67 58.5513 20.25C58.5513 19.83 58.6213 19.46 58.7613 19.14C58.9213 18.8 59.1613 18.63 59.4813 18.63C59.1813 18.63 58.9513 18.43 58.7913 18.03C58.6313 17.61 58.5413 17.12 58.5213 16.56C58.5013 15.98 58.5513 15.45 58.6713 14.97C58.7913 14.47 58.9813 14.16 59.2413 14.04C59.0013 14.06 58.7713 13.96 58.5513 13.74C58.3513 13.5 58.2013 13.23 58.1013 12.93C57.8613 13.21 57.5713 13.46 57.2313 13.68C56.8913 13.9 56.5813 14.03 56.3013 14.07C56.5613 14.27 56.6313 14.53 56.5113 14.85C56.3913 15.15 56.0913 15.3 55.6113 15.3C55.9113 15.3 56.1313 15.46 56.2713 15.78C56.4113 16.1 56.4813 16.48 56.4813 16.92C56.4813 17.34 56.4113 17.71 56.2713 18.03C56.1313 18.35 55.9113 18.51 55.6113 18.51C55.9313 18.51 56.1613 18.67 56.3013 18.99C56.4613 19.29 56.5413 19.64 56.5413 20.04C56.5413 20.42 56.4613 20.76 56.3013 21.06C56.1613 21.36 55.9313 21.51 55.6113 21.51C55.6713 21.89 55.6013 22.19 55.4013 22.41C55.2013 22.63 54.9413 22.77 54.6213 22.83C54.3213 22.89 54.0313 22.84 53.7513 22.68C53.4913 22.54 53.3313 22.29 53.2713 21.93C53.2713 22.35 53.1213 22.67 52.8213 22.89C52.5413 23.11 52.2113 23.22 51.8313 23.22C51.4513 23.22 51.1113 23.11 50.8113 22.89C50.5313 22.67 50.3913 22.35 50.3913 21.93C49.7313 22.15 49.3713 22.17 49.3113 21.99C49.2513 21.81 49.5513 21.61 50.2113 21.39C49.7913 21.39 49.5113 21.28 49.3713 21.06C49.2313 20.84 49.2313 20.62 49.3713 20.4C49.5113 20.18 49.7913 20.07 50.2113 20.07C49.9913 20.07 49.8113 19.92 49.6713 19.62C49.5513 19.32 49.4713 18.94 49.4313 18.48C49.3913 18.02 49.3913 17.57 49.4313 17.13C49.4713 16.67 49.5513 16.29 49.6713 15.99C49.8113 15.69 49.9913 15.54 50.2113 15.54C49.8913 15.54 49.6613 15.45 49.5213 15.27C49.4013 15.07 49.3713 14.87 49.4313 14.67C49.5113 14.45 49.6813 14.31 49.9413 14.25C49.7213 14.23 49.5013 14.08 49.2813 13.8C49.0613 13.5 48.9013 13.18 48.8013 12.84C48.5613 13.12 48.2513 13.36 47.8713 13.56C47.4913 13.74 47.1413 13.79 46.8213 13.71C46.9813 13.97 47.0913 14.33 47.1513 14.79C47.2113 15.23 47.2213 15.68 47.1813 16.14C47.1413 16.6 47.0413 17 46.8813 17.34C46.7413 17.66 46.5513 17.81 46.3113 17.79C46.6713 17.79 46.9013 17.94 47.0013 18.24C47.1213 18.54 47.1213 18.84 47.0013 19.14C46.9013 19.44 46.6713 19.59 46.3113 19.59C46.6113 19.69 46.8013 19.88 46.8813 20.16C46.9613 20.42 46.9613 20.71 46.8813 21.03C46.8013 21.33 46.6513 21.58 46.4313 21.78C46.2113 21.96 45.9513 22.01 45.6513 21.93C45.6513 22.35 45.5313 22.66 45.2913 22.86C45.0513 23.06 44.7713 23.16 44.4513 23.16C44.1313 23.16 43.8513 23.06 43.6113 22.86C43.3713 22.66 43.2513 22.35 43.2513 21.93C43.2513 22.27 43.1313 22.51 42.8913 22.65C42.6513 22.77 42.3713 22.72 42.0513 22.5C41.7313 22.26 41.4413 21.79 41.1813 21.09C40.9413 20.37 40.8113 19.36 40.7913 18.06ZM70.8085 21.51C70.3885 21.51 70.0685 21.4 69.8485 21.18C69.6285 20.94 69.5185 20.67 69.5185 20.37C69.5185 20.07 69.6285 19.81 69.8485 19.59C70.0685 19.35 70.3885 19.23 70.8085 19.23C70.4285 19.23 70.1385 19.06 69.9385 18.72C69.7585 18.36 69.6685 17.96 69.6685 17.52C69.6685 17.06 69.7585 16.66 69.9385 16.32C70.1385 15.96 70.4285 15.78 70.8085 15.78C70.4885 15.78 70.2485 15.65 70.0885 15.39C69.9485 15.11 69.8685 14.8 69.8485 14.46C69.8485 14.12 69.9285 13.83 70.0885 13.59C69.7285 13.61 69.3385 13.52 68.9185 13.32C68.5185 13.12 68.1985 12.86 67.9585 12.54C67.7185 12.22 67.6885 11.9 67.8685 11.58C67.4285 11.58 67.0985 11.42 66.8785 11.1C66.6785 10.76 66.5885 10.38 66.6085 9.95999C66.6085 9.51999 66.7185 9.13999 66.9385 8.81999C67.1585 8.49999 67.4885 8.34999 67.9285 8.36999C67.2485 7.98999 66.9585 7.70999 67.0585 7.52999C67.1585 7.34999 67.5485 7.44999 68.2285 7.82999C68.0485 7.54999 68.0285 7.26999 68.1685 6.98999C68.3285 6.68999 68.5585 6.43999 68.8585 6.23999C69.1585 6.01999 69.4685 5.88999 69.7885 5.84999C69.5685 5.62999 69.5585 5.40999 69.7585 5.18999C69.9585 4.94999 70.3585 4.85999 70.9585 4.91999C70.7585 4.73999 70.7285 4.44999 70.8685 4.04999C71.0285 3.64999 71.2785 3.24999 71.6185 2.84999C71.9785 2.44999 72.3385 2.13999 72.6985 1.91999C73.0785 1.69999 73.3785 1.67999 73.5985 1.85999C73.5185 1.49999 73.5785 1.19999 73.7785 0.959992C73.9785 0.699991 74.2385 0.539992 74.5585 0.479992C74.8985 0.399992 75.2085 0.429992 75.4885 0.569991C75.7885 0.689992 75.9785 0.939992 76.0585 1.31999C76.0385 0.899992 76.1985 0.579992 76.5385 0.359992C76.8785 0.139991 77.2785 0.029991 77.7385 0.029991C78.1985 0.00999129 78.5985 0.0999913 78.9385 0.299991C79.2985 0.499991 79.4785 0.809991 79.4785 1.22999C79.7385 1.08999 79.9985 1.08999 80.2585 1.22999C80.5185 1.36999 80.7285 1.58999 80.8885 1.88999C81.0485 2.16999 81.1185 2.45999 81.0985 2.75999C81.0985 3.03999 80.9685 3.24999 80.7085 3.38999C81.1685 3.40999 81.4685 3.55999 81.6085 3.83999C81.7485 4.09999 81.7385 4.35999 81.5785 4.61999C81.4185 4.87999 81.1085 4.99999 80.6485 4.97999C80.6485 5.27999 80.4685 5.49999 80.1085 5.63999C79.7685 5.77999 79.3785 5.84999 78.9385 5.84999C78.4985 5.82999 78.1485 5.72999 77.8885 5.54999C77.9085 5.72999 77.8785 5.93999 77.7985 6.17999C77.7185 6.39999 77.5985 6.60999 77.4385 6.80999C77.5785 6.94999 77.6585 7.13999 77.6785 7.37999C77.7585 7.05999 77.9085 6.86999 78.1285 6.80999C78.3485 6.72999 78.5485 6.77999 78.7285 6.95999C78.9285 7.11999 79.0285 7.40999 79.0285 7.82999C79.2085 7.46999 79.4385 7.27999 79.7185 7.25999C80.0185 7.23999 80.2485 7.34999 80.4085 7.58999C80.5885 7.80999 80.5885 8.10999 80.4085 8.48999C80.7885 8.46999 81.0785 8.60999 81.2785 8.90999C81.4785 9.20999 81.5885 9.56999 81.6085 9.98999C81.6285 10.41 81.5485 10.79 81.3685 11.13C81.2085 11.45 80.9485 11.62 80.5885 11.64C80.5685 12 80.3885 12.28 80.0485 12.48C79.7285 12.66 79.3485 12.76 78.9085 12.78C78.4685 12.78 78.0885 12.69 77.7685 12.51C77.7885 12.85 77.6785 13.18 77.4385 13.5C77.1985 13.82 76.8885 13.97 76.5085 13.95C76.8085 14.09 77.0185 14.39 77.1385 14.85C77.2785 15.31 77.3285 15.81 77.2885 16.35C77.2685 16.87 77.1585 17.32 76.9585 17.7C76.7785 18.08 76.5185 18.27 76.1785 18.27C76.6185 18.27 76.9085 18.43 77.0485 18.75C77.1885 19.07 77.1885 19.39 77.0485 19.71C76.9085 20.03 76.6185 20.19 76.1785 20.19C76.7185 20.33 77.0385 20.57 77.1385 20.91C77.2585 21.23 77.1885 21.51 76.9285 21.75C76.6885 21.99 76.2985 22.05 75.7585 21.93C75.7585 22.31 75.6185 22.6 75.3385 22.8C75.0585 23 74.7385 23.1 74.3785 23.1C74.0185 23.1 73.6985 23 73.4185 22.8C73.1585 22.6 73.0285 22.31 73.0285 21.93C73.0285 22.31 72.9185 22.59 72.6985 22.77C72.4785 22.97 72.2185 23.06 71.9185 23.04C71.6385 23.02 71.3885 22.89 71.1685 22.65C70.9485 22.39 70.8285 22.01 70.8085 21.51ZM83.3241 20.19C82.7641 20.19 82.3841 20.06 82.1841 19.8C82.0041 19.52 82.0041 19.24 82.1841 18.96C82.3841 18.68 82.7641 18.54 83.3241 18.54C83.0841 18.34 82.9741 18.12 82.9941 17.88C83.0141 17.62 83.1041 17.39 83.2641 17.19C83.4441 16.97 83.6541 16.84 83.8941 16.8C84.1341 16.74 84.3741 16.81 84.6141 17.01C84.3941 16.75 84.3641 16.43 84.5241 16.05C84.7041 15.65 84.9841 15.29 85.3641 14.97C85.7441 14.63 86.1341 14.41 86.5341 14.31C86.9541 14.19 87.2841 14.26 87.5241 14.52C87.3241 14.3 87.2541 14.05 87.3141 13.77C87.3941 13.49 87.5541 13.24 87.7941 13.02C88.0341 12.78 88.2941 12.61 88.5741 12.51C88.4341 12.41 88.3741 12.3 88.3941 12.18C87.9741 12.26 87.5041 12.29 86.9841 12.27C86.4841 12.23 86.0541 12.15 85.6941 12.03C85.3341 11.91 85.1541 11.73 85.1541 11.49C85.1941 11.93 85.0741 12.24 84.7941 12.42C84.5141 12.58 84.2141 12.61 83.8941 12.51C83.5941 12.39 83.4141 12.11 83.3541 11.67C82.8941 11.63 82.5941 11.46 82.4541 11.16C82.3341 10.84 82.3641 10.54 82.5441 10.26C82.7441 9.97999 83.0741 9.85999 83.5341 9.89999C83.3341 9.69999 83.2741 9.44999 83.3541 9.14999C83.4541 8.82999 83.6341 8.53999 83.8941 8.27999C84.1541 7.99999 84.4341 7.80999 84.7341 7.70999C85.0341 7.58999 85.2941 7.62999 85.5141 7.82999C85.5141 7.46999 85.6341 7.20999 85.8741 7.04999C86.1141 6.86999 86.3841 6.77999 86.6841 6.77999C87.0041 6.77999 87.2841 6.86999 87.5241 7.04999C87.7641 7.20999 87.8841 7.46999 87.8841 7.82999C87.8841 7.38999 88.0441 7.09999 88.3641 6.95999C88.6841 6.79999 89.0041 6.79999 89.3241 6.95999C89.6441 7.09999 89.8041 7.38999 89.8041 7.82999C89.8041 7.38999 89.9341 7.05999 90.1941 6.83999C90.4741 6.61999 90.7841 6.50999 91.1241 6.50999C91.4641 6.50999 91.7641 6.61999 92.0241 6.83999C92.3041 7.05999 92.4441 7.38999 92.4441 7.82999C92.4441 7.40999 92.5541 7.12999 92.7741 6.98999C92.9941 6.84999 93.2041 6.84999 93.4041 6.98999C93.6241 7.12999 93.7341 7.40999 93.7341 7.82999C93.7941 7.48999 93.9941 7.25999 94.3341 7.13999C94.6941 7.01999 95.0841 6.99999 95.5041 7.07999C95.9241 7.13999 96.2741 7.27999 96.5541 7.49999C96.8541 7.71999 96.9741 8.00999 96.9141 8.36999C97.2741 8.40999 97.5241 8.62999 97.6641 9.02999C97.8041 9.42999 97.8441 9.88999 97.7841 10.41C97.7441 10.91 97.6041 11.35 97.3641 11.73C97.1441 12.09 96.8541 12.25 96.4941 12.21C96.7741 12.53 96.8441 12.89 96.7041 13.29C96.5841 13.67 96.3541 14.01 96.0141 14.31C95.6741 14.61 95.2941 14.8 94.8741 14.88C94.4741 14.94 94.1441 14.81 93.8841 14.49C94.0841 14.73 94.1241 15.01 94.0041 15.33C93.8841 15.63 93.6841 15.91 93.4041 16.17C93.1241 16.41 92.8241 16.57 92.5041 16.65C92.1841 16.73 91.9341 16.65 91.7541 16.41C91.9341 16.59 91.9841 16.82 91.9041 17.1C91.8241 17.38 91.6841 17.64 91.4841 17.88C91.5241 18 91.5441 18.13 91.5441 18.27C91.5441 17.93 91.7141 17.68 92.0541 17.52C92.3941 17.34 92.7841 17.25 93.2241 17.25C93.6641 17.25 94.0441 17.34 94.3641 17.52C94.7041 17.68 94.8741 17.93 94.8741 18.27C94.8741 17.83 94.9741 17.54 95.1741 17.4C95.3741 17.24 95.5741 17.24 95.7741 17.4C95.9741 17.54 96.0741 17.83 96.0741 18.27C96.0741 17.79 96.1641 17.47 96.3441 17.31C96.5441 17.15 96.7441 17.15 96.9441 17.31C97.1441 17.47 97.2441 17.79 97.2441 18.27C97.7441 18.17 98.0941 18.22 98.2941 18.42C98.5141 18.6 98.5641 18.82 98.4441 19.08C98.3241 19.34 98.0241 19.52 97.5441 19.62C97.7641 19.78 97.8341 20.02 97.7541 20.34C97.6941 20.64 97.5441 20.95 97.3041 21.27C97.0841 21.57 96.8341 21.8 96.5541 21.96C96.2741 22.1 96.0241 22.09 95.8041 21.93C95.8041 22.35 95.7041 22.63 95.5041 22.77C95.3041 22.93 95.1041 22.93 94.9041 22.77C94.7041 22.63 94.6041 22.35 94.6041 21.93C94.6041 22.23 94.4641 22.46 94.1841 22.62C93.9041 22.78 93.5741 22.86 93.1941 22.86C92.8141 22.86 92.4741 22.78 92.1741 22.62C91.8941 22.46 91.7541 22.23 91.7541 21.93C91.7541 22.19 91.6141 22.4 91.3341 22.56C91.0541 22.7 90.7041 22.79 90.2841 22.83C89.8641 22.89 89.4441 22.89 89.0241 22.83C88.6241 22.79 88.2741 22.7 87.9741 22.56C87.6941 22.4 87.5541 22.19 87.5541 21.93C87.5541 22.25 87.4141 22.5 87.1341 22.68C86.8541 22.88 86.5041 22.99 86.0841 23.01C85.6641 23.03 85.2441 22.94 84.8241 22.74C84.4241 22.56 84.0741 22.26 83.7741 21.84C83.4941 21.42 83.3441 20.87 83.3241 20.19ZM103.269 21.51C102.849 21.51 102.529 21.4 102.309 21.18C102.089 20.94 101.979 20.67 101.979 20.37C101.979 20.07 102.089 19.81 102.309 19.59C102.529 19.35 102.849 19.23 103.269 19.23C102.889 19.23 102.599 19.06 102.399 18.72C102.219 18.36 102.129 17.96 102.129 17.52C102.129 17.06 102.219 16.66 102.399 16.32C102.599 15.96 102.889 15.78 103.269 15.78C102.949 15.78 102.709 15.65 102.549 15.39C102.409 15.11 102.329 14.8 102.309 14.46C102.309 14.12 102.389 13.83 102.549 13.59C102.189 13.61 101.799 13.52 101.379 13.32C100.979 13.12 100.659 12.86 100.419 12.54C100.179 12.22 100.149 11.9 100.329 11.58C99.8894 11.58 99.5594 11.42 99.3394 11.1C99.1394 10.76 99.0494 10.38 99.0694 9.95999C99.0694 9.51999 99.1794 9.13999 99.3994 8.81999C99.6194 8.49999 99.9494 8.34999 100.389 8.36999C99.7094 7.98999 99.4194 7.70999 99.5194 7.52999C99.6194 7.34999 100.009 7.44999 100.689 7.82999C100.509 7.54999 100.489 7.26999 100.629 6.98999C100.789 6.68999 101.019 6.43999 101.319 6.23999C101.619 6.01999 101.929 5.88999 102.249 5.84999C102.029 5.62999 102.019 5.40999 102.219 5.18999C102.419 4.94999 102.819 4.85999 103.419 4.91999C103.219 4.73999 103.189 4.44999 103.329 4.04999C103.489 3.64999 103.739 3.24999 104.079 2.84999C104.439 2.44999 104.799 2.13999 105.159 1.91999C105.539 1.69999 105.839 1.67999 106.059 1.85999C105.979 1.49999 106.039 1.19999 106.239 0.959992C106.439 0.699991 106.699 0.539992 107.019 0.479992C107.359 0.399992 107.669 0.429992 107.949 0.569991C108.249 0.689992 108.439 0.939992 108.519 1.31999C108.499 0.899992 108.659 0.579992 108.999 0.359992C109.339 0.139991 109.739 0.029991 110.199 0.029991C110.659 0.00999129 111.059 0.0999913 111.399 0.299991C111.759 0.499991 111.939 0.809991 111.939 1.22999C112.199 1.08999 112.459 1.08999 112.719 1.22999C112.979 1.36999 113.189 1.58999 113.349 1.88999C113.509 2.16999 113.579 2.45999 113.559 2.75999C113.559 3.03999 113.429 3.24999 113.169 3.38999C113.629 3.40999 113.929 3.55999 114.069 3.83999C114.209 4.09999 114.199 4.35999 114.039 4.61999C113.879 4.87999 113.569 4.99999 113.109 4.97999C113.109 5.27999 112.929 5.49999 112.569 5.63999C112.229 5.77999 111.839 5.84999 111.399 5.84999C110.959 5.82999 110.609 5.72999 110.349 5.54999C110.369 5.72999 110.339 5.93999 110.259 6.17999C110.179 6.39999 110.059 6.60999 109.899 6.80999C110.039 6.94999 110.119 7.13999 110.139 7.37999C110.219 7.05999 110.369 6.86999 110.589 6.80999C110.809 6.72999 111.009 6.77999 111.189 6.95999C111.389 7.11999 111.489 7.40999 111.489 7.82999C111.669 7.46999 111.899 7.27999 112.179 7.25999C112.479 7.23999 112.709 7.34999 112.869 7.58999C113.049 7.80999 113.049 8.10999 112.869 8.48999C113.249 8.46999 113.539 8.60999 113.739 8.90999C113.939 9.20999 114.049 9.56999 114.069 9.98999C114.089 10.41 114.009 10.79 113.829 11.13C113.669 11.45 113.409 11.62 113.049 11.64C113.029 12 112.849 12.28 112.509 12.48C112.189 12.66 111.809 12.76 111.369 12.78C110.929 12.78 110.549 12.69 110.229 12.51C110.249 12.85 110.139 13.18 109.899 13.5C109.659 13.82 109.349 13.97 108.969 13.95C109.269 14.09 109.479 14.39 109.599 14.85C109.739 15.31 109.789 15.81 109.749 16.35C109.729 16.87 109.619 17.32 109.419 17.7C109.239 18.08 108.979 18.27 108.639 18.27C109.079 18.27 109.369 18.43 109.509 18.75C109.649 19.07 109.649 19.39 109.509 19.71C109.369 20.03 109.079 20.19 108.639 20.19C109.179 20.33 109.499 20.57 109.599 20.91C109.719 21.23 109.649 21.51 109.389 21.75C109.149 21.99 108.759 22.05 108.219 21.93C108.219 22.31 108.079 22.6 107.799 22.8C107.519 23 107.199 23.1 106.839 23.1C106.479 23.1 106.159 23 105.879 22.8C105.619 22.6 105.489 22.31 105.489 21.93C105.489 22.31 105.379 22.59 105.159 22.77C104.939 22.97 104.679 23.06 104.379 23.04C104.099 23.02 103.849 22.89 103.629 22.65C103.409 22.39 103.289 22.01 103.269 21.51Z" fill="white"/>
</svg>
