<svg width="1858" height="471" viewBox="0 0 1858 471" fill="none" xmlns="http://www.w3.org/2000/svg">
<path d="M75.207 469.689C72.0537 469.374 68.7427 467.324 65.274 463.54C61.8053 460.071 58.9673 456.13 56.76 451.715C54.5527 447.3 53.449 444.147 53.449 442.255C53.449 433.426 62.5937 421.916 80.883 407.726C99.4877 393.851 125.66 380.45 159.401 367.521L258.258 329.681C264.565 318.644 269.137 307.45 271.975 296.098C275.128 284.431 276.705 272.921 276.705 261.569C276.705 233.504 269.768 208.278 255.893 185.889C242.334 163.5 224.202 144.58 201.498 129.129C178.794 113.362 153.883 102.01 126.764 95.073C115.412 115.57 105.164 138.274 96.019 163.185C87.1897 188.096 79.6217 213.638 73.315 239.811C67.0083 265.984 62.1207 291.368 58.652 315.964C55.1833 340.56 53.449 362.949 53.449 383.13C53.449 392.905 53.7643 401.104 54.395 407.726C55.0257 414.663 55.814 421.285 56.76 427.592C56.76 427.907 56.6023 428.065 56.287 428.065C52.503 428.065 49.3497 425.227 46.827 419.551C44.6197 414.19 42.8853 407.568 41.624 399.685C40.678 391.486 40.205 383.603 40.205 376.035C40.205 352.385 42.2547 327.158 46.354 300.355C50.7687 273.552 56.287 246.906 62.909 220.418C69.8463 193.93 76.9413 169.334 84.194 146.63C91.4467 123.926 97.911 105.006 103.587 89.87C97.2803 88.924 90.816 88.1357 84.194 87.505C77.8873 86.8743 71.5807 86.559 65.274 86.559C51.7147 86.559 39.259 87.505 27.907 89.397C16.8703 90.9737 8.67166 92.5503 3.31099 94.127C1.10366 93.8117 -9.93302e-06 92.8657 -9.93302e-06 91.289C-9.93302e-06 88.451 4.72999 84.8247 14.19 80.41C23.9653 75.9953 35.1597 72.2113 47.773 69.058C64.4857 64.6433 81.1983 62.436 97.911 62.436C100.749 62.436 103.587 62.5937 106.425 62.909C109.263 62.909 112.101 63.0667 114.939 63.382C115.57 62.1207 116.043 61.1747 116.358 60.544C116.989 59.598 117.462 58.8097 117.777 58.179C120.615 53.1337 123.453 50.611 126.291 50.611C128.183 50.611 129.602 52.03 130.548 54.868C131.494 57.706 132.125 61.1747 132.44 65.274C156.09 69.058 178.794 76.4683 200.552 87.505C222.31 98.5417 241.703 112.259 258.731 128.656C275.759 145.053 289.161 163.5 298.936 183.997C309.027 204.494 314.072 226.094 314.072 248.798C314.072 259.519 312.811 270.398 310.288 281.435C308.081 292.472 304.297 303.508 298.936 314.545C310.288 311.076 317.856 308.396 321.64 306.504C325.424 304.297 328.42 303.193 330.627 303.193C331.573 303.193 332.046 303.508 332.046 304.139C332.046 304.77 330.627 306.189 327.789 308.396C324.951 310.603 321.64 312.968 317.856 315.491C314.072 317.698 310.761 319.433 307.923 320.694L292.314 327.316C286.638 337.091 280.016 347.024 272.448 357.115C264.88 367.206 256.051 376.981 245.96 386.441C233.662 398.108 219.787 408.83 204.336 418.605C189.2 428.696 173.591 437.367 157.509 444.62C141.742 451.873 126.606 457.706 112.101 462.121C97.911 466.536 85.613 469.058 75.207 469.689ZM71.896 442.728C87.978 438.313 102.168 434.056 114.466 429.957C127.079 426.173 138.589 421.916 148.995 417.186C159.716 412.456 170.28 406.938 180.686 400.631C191.092 394.009 202.444 386.126 214.742 376.981C227.671 367.521 238.55 357.115 247.379 345.763C233.82 351.124 219.787 356.8 205.282 362.791C191.092 368.467 176.587 374.143 161.766 379.819C153.567 382.972 144.265 387.545 133.859 393.536C123.768 399.212 113.993 405.361 104.533 411.983C95.073 418.605 87.1897 424.596 80.883 429.957C74.8917 435.633 71.896 439.89 71.896 442.728ZM396.622 456.918C394.414 456.918 390.946 456.13 386.216 454.553C381.801 453.292 377.544 451.242 373.445 448.404C369.661 445.881 367.296 442.728 366.35 438.944C363.827 426.331 361.304 410.879 358.782 392.59C356.574 374.301 354.682 354.277 353.106 332.519C351.844 310.761 351.214 288.53 351.214 265.826C351.214 241.545 352.317 217.738 354.525 194.403C356.732 170.753 359.097 148.837 361.62 128.656C364.458 108.159 366.507 90.9737 367.769 77.099C365.561 80.883 363.354 84.8247 361.147 88.924C359.255 93.0233 357.993 95.073 357.363 95.073C357.047 95.073 356.89 94.6 356.89 93.654C356.89 92.708 357.047 90.9737 357.363 88.451C357.678 85.9283 358.309 82.6173 359.255 78.518C359.885 75.0493 361.147 70.1617 363.039 63.855C365.246 57.5483 367.611 51.084 370.134 44.462C372.656 37.84 375.337 32.3217 378.175 27.907C381.013 23.177 383.535 20.812 385.743 20.812C391.103 20.812 396.464 23.0193 401.825 27.434C407.185 31.8487 409.866 35.948 409.866 39.732V41.151C403.244 56.6023 397.725 75.207 393.311 96.965C388.896 118.408 385.585 141.585 383.378 166.496C381.486 191.407 380.54 216.792 380.54 242.649C380.54 270.083 381.17 297.044 382.432 323.532C384.008 350.02 386.058 373.985 388.581 395.428C389.842 389.121 390.788 382.657 391.419 376.035C392.049 369.413 392.522 366.102 392.838 366.102C393.468 366.102 393.941 368.782 394.257 374.143C394.572 379.504 394.887 386.283 395.203 394.482C395.833 402.681 396.306 411.037 396.622 419.551C396.937 428.38 397.252 436.106 397.568 442.728C397.883 449.35 398.356 453.765 398.987 455.972C398.987 456.603 398.198 456.918 396.622 456.918ZM575.416 347.655C574.47 347.655 573.839 347.497 573.524 347.182C565.64 344.029 554.131 339.929 538.995 334.884C524.174 329.523 508.407 324.32 491.695 319.275C485.703 317.698 476.401 315.491 463.788 312.653C451.174 309.5 438.088 306.819 424.529 304.612L420.745 307.923C417.591 311.076 413.019 312.653 407.028 312.653C401.982 312.653 397.568 311.865 393.784 310.288C390 308.711 387.319 306.819 385.743 304.612C385.112 303.351 384.481 302.247 383.851 301.301C383.535 300.355 383.378 298.778 383.378 296.571C383.378 293.733 385.112 290.737 388.581 287.584C392.365 284.115 396.779 282.381 401.825 282.381H403.244C404.19 282.381 404.978 282.539 405.609 282.854C406.555 283.169 407.501 283.327 408.447 283.327C417.591 275.444 426.421 266.93 434.935 257.785C443.764 248.325 451.805 239.496 459.058 231.297C466.31 222.783 471.829 216.319 475.613 211.904C481.604 203.705 487.911 194.718 494.533 184.943C501.47 175.168 507.934 165.865 513.926 157.036C519.917 148.207 524.962 140.954 529.062 135.278C533.161 129.602 535.684 126.764 536.63 126.764C538.522 126.764 539.468 127.868 539.468 130.075C539.468 130.706 539.152 131.967 538.522 133.859C525.593 162.87 510.93 190.619 494.533 217.107C478.451 243.28 460.004 267.403 439.192 289.476C485.861 300.513 530.638 318.014 573.524 341.979C576.362 343.24 577.781 344.659 577.781 346.236C577.781 347.182 576.992 347.655 575.416 347.655ZM652.94 415.767C651.048 415.767 647.737 414.979 643.007 413.402C638.277 412.141 633.862 410.249 629.763 407.726C625.663 405.203 623.298 402.365 622.668 399.212C621.091 389.752 619.83 378.873 618.884 366.575C618.253 353.962 617.938 340.56 617.938 326.37C617.938 304.612 618.726 282.066 620.303 258.731C621.879 235.396 623.771 213.323 625.979 192.511C628.501 171.699 631.182 154.513 634.02 140.954C631.182 143.792 628.028 146.945 624.56 150.414C621.091 153.567 618.884 155.144 617.938 155.144C616.992 155.144 616.519 154.356 616.519 152.779C616.519 151.202 618.095 147.103 621.249 140.481C624.402 133.544 628.186 126.133 632.601 118.25C637.015 110.051 640.957 102.956 644.426 96.965C647.894 90.9737 650.102 87.978 651.048 87.978C652.94 87.978 655.778 89.0817 659.562 91.289C663.346 93.181 666.814 95.546 669.968 98.384C673.436 101.222 675.171 103.902 675.171 106.425V106.898C667.287 120.142 660.981 136.066 656.251 154.671C651.836 172.96 648.683 192.826 646.791 214.269C645.214 235.396 644.426 256.997 644.426 279.07C644.426 291.368 644.583 303.508 644.899 315.491C645.529 327.474 646.16 339.141 646.791 350.493C647.737 341.033 649.471 328.577 651.994 313.126C654.832 297.675 657.985 281.12 661.454 263.461C665.238 245.487 669.022 227.671 672.806 210.012C676.59 192.038 680.216 175.798 683.685 161.293C687.153 146.788 689.834 135.436 691.726 127.237C696.14 109.263 699.924 95.546 703.078 86.086C706.546 76.3107 709.542 69.6887 712.065 66.22C714.587 62.436 716.637 60.544 718.214 60.544C718.529 60.544 720.421 62.1207 723.89 65.274C727.674 68.112 731.3 71.7383 734.769 76.153C738.237 80.5677 739.972 85.14 739.972 89.87C739.972 90.1853 739.814 90.6583 739.499 91.289C739.499 91.6043 739.499 92.0773 739.499 92.708C739.183 95.2307 738.553 101.222 737.607 110.682C736.661 120.142 735.715 131.494 734.769 144.738C733.823 157.667 733.034 170.911 732.404 184.47C731.773 197.714 731.458 209.539 731.458 219.945C731.458 229.405 731.773 240.757 732.404 254.001C733.35 267.245 734.611 280.647 736.188 294.206C737.764 307.765 739.499 319.906 741.391 330.627C743.283 341.348 745.175 348.916 747.067 353.331C747.067 351.439 747.855 346.551 749.432 338.668C751.324 330.469 753.689 320.379 756.527 308.396C759.365 296.413 762.36 283.485 765.514 269.61C768.982 255.735 772.293 242.176 775.447 228.932C778.915 215.688 781.911 203.863 784.434 193.457C786.956 183.051 788.848 175.168 790.11 169.807C792.948 157.824 795.628 148.995 798.151 143.319C800.673 137.643 803.984 134.805 808.084 134.805C814.39 134.805 820.224 138.431 825.585 145.684C831.261 152.937 834.099 161.451 834.099 171.226C834.099 174.379 833.941 177.69 833.626 181.159C833.626 184.312 833.626 187.623 833.626 191.092C833.626 203.705 834.256 217.58 835.518 232.716C836.779 247.852 838.513 262.357 840.721 276.232C842.928 289.791 845.608 300.986 848.762 309.815C852.23 318.644 856.014 323.059 860.114 323.059C865.474 323.059 872.885 314.387 882.345 297.044C884.552 293.26 887.075 287.742 889.913 280.489C893.066 272.921 896.062 266.141 898.9 260.15C901.738 254.159 903.63 251.163 904.576 251.163C905.522 251.163 905.995 253.055 905.995 256.839C905.995 260.938 905.049 265.984 903.157 271.975C901.265 277.966 899.057 283.8 896.535 289.476C894.327 294.837 892.593 298.936 891.332 301.774C881.872 320.379 873.042 333.465 864.844 341.033C856.96 348.601 849.865 352.385 843.559 352.385C837.252 352.385 831.418 349.232 826.058 342.925C821.958 338.195 818.49 330.312 815.652 319.275C813.129 308.238 810.922 295.94 809.03 282.381C807.138 268.822 805.403 255.893 803.827 243.595C802.565 230.982 801.304 220.576 800.043 212.377C798.781 204.178 797.362 200.079 795.786 200.079C794.524 200.079 792.79 204.021 790.583 211.904C788.375 219.472 786.01 229.563 783.488 242.176C780.965 254.474 778.442 267.718 775.92 281.908C773.712 296.098 771.505 309.815 769.298 323.059C767.406 336.303 765.829 347.655 764.568 357.115C763.306 366.26 762.676 372.093 762.676 374.616C762.676 380.607 760.941 384.707 757.473 386.914C754.004 389.121 749.432 390.225 743.756 390.225C742.494 390.225 741.075 390.225 739.499 390.225C737.922 390.225 736.345 390.067 734.769 389.752C730.354 389.437 726.255 383.761 722.471 372.724C719.002 361.687 715.691 347.497 712.538 330.154C709.7 312.495 707.177 293.575 704.97 273.394C703.078 252.897 701.501 232.874 700.24 213.323C698.978 193.457 698.032 176.114 697.402 161.293C690.78 180.528 684.788 201.498 679.428 224.202C674.067 246.591 669.495 269.137 665.711 291.841C662.242 314.545 659.404 336.145 657.197 356.642C655.305 377.139 654.359 395.113 654.359 410.564C654.359 413.087 654.516 414.663 654.832 415.294C654.832 415.609 654.201 415.767 652.94 415.767ZM1017.63 432.322C1017.63 425.069 1016.68 415.136 1014.79 402.523C1012.9 389.91 1009.75 376.508 1005.33 362.318C1000.92 347.813 994.926 334.253 987.358 321.64C982.943 314.387 976.479 308.554 967.965 304.139C959.766 299.724 950.622 296.571 940.531 294.679C930.756 292.472 921.138 291.368 911.678 291.368H903.637C902.691 291.368 902.218 290.737 902.218 289.476C902.218 286.638 903.322 282.696 905.529 277.651C907.736 272.606 910.259 267.876 913.097 263.461C915.935 259.046 918.3 256.681 920.192 256.366C937.22 253.843 954.563 251.794 972.222 250.217C990.196 248.325 1008.01 246.748 1025.67 245.487C1026.3 224.99 1027.56 202.917 1029.45 179.267C1031.66 155.302 1033.87 133.228 1036.08 113.047C1018.42 118.092 1000.6 123.768 982.628 130.075C964.654 136.382 946.68 143.319 928.706 150.887H928.233C926.972 150.887 926.341 149.31 926.341 146.157C926.341 142.688 926.972 138.274 928.233 132.913C929.81 127.237 931.544 122.192 933.436 117.777C935.643 113.047 937.693 110.524 939.585 110.209C954.721 105.794 970.645 101.695 987.358 97.911C1004.39 93.8117 1021.57 90.1853 1038.91 87.032L1043.64 56.287C1041.44 60.071 1039.23 64.0127 1037.02 68.112C1035.13 72.2113 1033.87 74.261 1033.24 74.261C1032.92 74.261 1032.77 73.788 1032.77 72.842C1032.77 71.896 1032.92 70.1617 1033.24 67.639C1033.55 65.1163 1034.18 61.8053 1035.13 57.706C1035.76 54.2373 1037.02 49.3497 1038.91 43.043C1041.12 36.7363 1043.49 30.272 1046.01 23.65C1048.53 17.028 1051.21 11.5097 1054.05 7.09499C1056.89 2.365 1059.41 1.49012e-06 1061.62 1.49012e-06C1066.98 1.49012e-06 1072.18 2.52266 1077.23 7.56799C1082.59 12.298 1085.27 16.7127 1085.27 20.812V22.231C1082.43 29.1683 1079.75 37.84 1077.23 48.246C1074.71 58.652 1072.34 69.8463 1070.13 81.829C1089.37 79.3063 1108.29 77.2567 1126.89 75.68C1145.5 74.1033 1163.47 73.315 1180.81 73.315C1189.01 73.315 1198 73.6303 1207.78 74.261C1217.55 74.5763 1226.85 75.3647 1235.68 76.626C1244.83 77.572 1252.24 78.8333 1257.91 80.41C1263.59 81.9867 1266.43 84.0363 1266.43 86.559C1266.43 88.1357 1264.54 88.924 1260.75 88.924C1251.92 88.924 1243.25 88.2933 1234.74 87.032C1226.54 85.7707 1218.02 85.14 1209.19 85.14C1166.62 85.14 1119.01 91.6043 1066.35 104.533C1063.83 120.93 1061.46 137.801 1059.25 155.144C1057.36 172.172 1055.63 188.412 1054.05 203.863C1052.47 219.314 1051.21 232.716 1050.27 244.068C1061.3 243.437 1072.02 242.964 1082.43 242.649C1093.15 242.334 1103.4 242.176 1113.18 242.176C1127.05 242.176 1140.77 242.491 1154.33 243.122C1167.89 243.753 1179.24 244.856 1188.38 246.433C1197.53 247.694 1202.1 249.586 1202.1 252.109C1202.1 253.055 1201.47 254.001 1200.21 254.947C1199.26 255.578 1198.16 255.893 1196.9 255.893C1190.27 255.893 1183.34 255.42 1176.08 254.474C1168.83 253.528 1161.42 253.055 1153.85 253.055C1138.4 253.055 1121.85 254.001 1104.19 255.893C1086.85 257.47 1068.4 259.835 1048.85 262.988C1046.96 285.061 1045.06 307.765 1043.17 331.1C1041.6 354.119 1040.49 373.985 1039.86 390.698C1039.55 400.473 1037.81 408.987 1034.66 416.24C1031.82 423.493 1026.14 428.853 1017.63 432.322ZM1024.25 386.914C1023.94 380.923 1023.62 374.616 1023.31 367.994C1023.31 361.057 1023.31 353.804 1023.31 346.236C1023.31 334.253 1023.46 321.64 1023.78 308.396C1024.09 294.837 1024.57 280.962 1025.2 266.772C1014.48 268.664 1003.44 270.714 992.088 272.921C980.736 275.128 969.069 277.493 957.086 280.016C967.492 284.431 976.794 290.737 984.993 298.936C993.192 306.819 1000.44 317.698 1006.75 331.573C1013.37 345.448 1019.21 363.895 1024.25 386.914ZM1460.65 470.162C1454.97 470.162 1447.4 468.428 1437.94 464.959C1429.43 461.806 1417.76 457.549 1402.94 452.188C1388.12 447.143 1371.72 441.467 1353.75 435.16C1335.77 428.853 1317.64 422.389 1299.35 415.767C1281.38 409.145 1264.51 402.996 1248.74 397.32C1248.43 398.266 1248.11 399.685 1247.8 401.577C1247.8 403.154 1246.85 403.942 1244.96 403.942C1244.01 403.942 1242.59 403.469 1240.7 402.523C1236.6 400.631 1231.71 398.581 1226.04 396.374C1220.68 393.851 1215.32 391.486 1209.96 389.279C1206.49 395.586 1204.6 400.473 1204.28 403.942C1203.65 410.879 1201.44 414.348 1197.66 414.348C1196.4 414.348 1194.98 413.244 1193.4 411.037C1192.14 409.145 1191.51 405.834 1191.51 401.104C1191.51 394.797 1192.61 388.491 1194.82 382.184C1189.77 379.661 1187.25 377.612 1187.25 376.035C1187.57 373.512 1189.14 369.728 1191.98 364.683C1194.82 359.322 1198.13 354.592 1201.92 350.493C1206.01 346.078 1209.64 343.871 1212.79 343.871C1213.74 343.871 1214.53 344.029 1215.16 344.344C1215.79 344.975 1216.26 345.29 1216.58 345.29C1227.93 330.785 1242.12 315.649 1259.15 299.882C1276.49 283.8 1294.62 267.876 1313.54 252.109C1332.46 236.342 1350.59 221.522 1367.94 207.647C1385.6 193.457 1400.58 181.001 1412.87 170.28C1425.17 159.559 1433.05 151.36 1436.52 145.684H1429.43C1414.92 145.684 1402.94 144.738 1393.48 142.846C1384.34 140.639 1376.29 138.274 1369.36 135.751C1362.42 132.913 1355.32 130.548 1348.07 128.656C1340.82 126.449 1331.83 125.345 1321.11 125.345C1305.03 125.345 1292.26 128.025 1282.8 133.386C1273.65 138.431 1266.72 144.58 1261.99 151.833C1257.57 159.086 1254.58 166.023 1253 172.645C1251.74 178.952 1251.11 183.524 1251.11 186.362C1251.11 192.353 1250 195.349 1247.8 195.349C1246.53 195.349 1245.12 193.457 1243.54 189.673C1242.28 185.889 1241.65 180.844 1241.65 174.537C1241.65 172.33 1242.12 169.176 1243.07 165.077C1244.01 160.662 1246.38 154.671 1250.16 147.103C1254.26 139.535 1261.04 129.76 1270.5 117.777C1281.54 103.587 1293.52 93.3387 1306.45 87.032C1319.38 80.7253 1330.73 77.572 1340.5 77.572C1345.23 77.572 1349.33 78.2027 1352.8 79.464C1357.22 81.356 1362.89 84.9823 1369.83 90.343C1376.77 95.7037 1384.34 101.695 1392.53 108.317C1400.73 114.624 1409.09 120.142 1417.6 124.872C1426.43 129.287 1435.1 131.494 1443.62 131.494C1451.82 131.494 1459.54 129.444 1466.8 125.345C1474.36 121.246 1481.14 116.516 1487.13 111.155C1493.44 105.479 1498.64 100.276 1502.74 95.546C1507.16 90.816 1510 87.8203 1511.26 86.559C1512.83 84.9823 1514.25 83.5633 1515.51 82.302C1517.09 80.7253 1518.98 79.937 1521.19 79.937C1523.08 79.937 1525.45 81.0407 1528.29 83.248C1531.12 85.4553 1533.65 87.978 1535.85 90.816C1538.06 93.3387 1539.16 95.7037 1539.16 97.911C1539.16 100.434 1537.11 103.114 1533.02 105.952C1528.92 108.475 1522.14 111.628 1512.68 115.412C1499.12 120.773 1482.72 129.917 1463.48 142.846C1444.56 155.775 1424.38 171.068 1402.94 188.727C1381.5 206.386 1360.05 225.148 1338.61 245.014C1317.48 264.88 1297.78 284.431 1279.49 303.666C1261.2 322.586 1245.75 339.929 1233.13 355.696C1242.91 361.057 1254.42 367.206 1267.66 374.143C1281.22 380.765 1295.57 387.545 1310.71 394.482C1326.16 401.419 1341.45 407.726 1356.59 413.402C1372.04 419.078 1386.39 423.65 1399.63 427.119C1412.87 430.588 1424.23 432.322 1433.69 432.322C1446.93 432.322 1453.55 426.488 1453.55 414.821C1453.55 406.622 1450.87 397.162 1445.51 386.441C1440.46 375.404 1433.84 364.525 1425.64 353.804C1417.76 342.767 1409.25 333.623 1400.1 326.37C1396 323.217 1393.95 320.694 1393.95 318.802C1393.95 317.541 1395.06 316.91 1397.26 316.91C1399.16 316.91 1401.68 317.541 1404.83 318.802C1407.99 319.748 1410.98 321.482 1413.82 324.005C1419.18 328.42 1425.49 335.672 1432.74 345.763C1440.31 355.538 1447.56 366.733 1454.5 379.346C1461.75 391.959 1467.74 404.415 1472.47 416.713C1477.2 429.011 1479.57 439.732 1479.57 448.877C1479.57 455.184 1478.15 460.229 1475.31 464.013C1472.47 468.112 1467.58 470.162 1460.65 470.162ZM1608.42 432.322C1608.42 425.069 1607.47 415.136 1605.58 402.523C1603.69 389.91 1600.53 376.508 1596.12 362.318C1591.71 347.813 1585.71 334.253 1578.15 321.64C1573.73 314.387 1567.27 308.554 1558.75 304.139C1550.55 299.724 1541.41 296.571 1531.32 294.679C1521.54 292.472 1511.93 291.368 1502.47 291.368H1494.43C1493.48 291.368 1493.01 290.737 1493.01 289.476C1493.01 286.638 1494.11 282.696 1496.32 277.651C1498.52 272.606 1501.05 267.876 1503.89 263.461C1506.72 259.046 1509.09 256.681 1510.98 256.366C1528.01 253.843 1545.35 251.794 1563.01 250.217C1580.98 248.325 1598.8 246.748 1616.46 245.487C1617.09 224.99 1618.35 202.917 1620.24 179.267C1622.45 155.302 1624.66 133.228 1626.87 113.047C1609.21 118.092 1591.39 123.768 1573.42 130.075C1555.44 136.382 1537.47 143.319 1519.49 150.887H1519.02C1517.76 150.887 1517.13 149.31 1517.13 146.157C1517.13 142.688 1517.76 138.274 1519.02 132.913C1520.6 127.237 1522.33 122.192 1524.22 117.777C1526.43 113.047 1528.48 110.524 1530.37 110.209C1545.51 105.794 1561.43 101.695 1578.15 97.911C1595.17 93.8117 1612.36 90.1853 1629.7 87.032L1634.43 56.287C1632.23 60.071 1630.02 64.0127 1627.81 68.112C1625.92 72.2113 1624.66 74.261 1624.03 74.261C1623.71 74.261 1623.55 73.788 1623.55 72.842C1623.55 71.896 1623.71 70.1617 1624.03 67.639C1624.34 65.1163 1624.97 61.8053 1625.92 57.706C1626.55 54.2373 1627.81 49.3497 1629.7 43.043C1631.91 36.7363 1634.28 30.272 1636.8 23.65C1639.32 17.028 1642 11.5097 1644.84 7.09499C1647.68 2.365 1650.2 1.49012e-06 1652.41 1.49012e-06C1657.77 1.49012e-06 1662.97 2.52266 1668.02 7.56799C1673.38 12.298 1676.06 16.7127 1676.06 20.812V22.231C1673.22 29.1683 1670.54 37.84 1668.02 48.246C1665.49 58.652 1663.13 69.8463 1660.92 81.829C1680.16 79.3063 1699.08 77.2567 1717.68 75.68C1736.29 74.1033 1754.26 73.315 1771.6 73.315C1779.8 73.315 1788.79 73.6303 1798.56 74.261C1808.34 74.5763 1817.64 75.3647 1826.47 76.626C1835.62 77.572 1843.03 78.8333 1848.7 80.41C1854.38 81.9867 1857.22 84.0363 1857.22 86.559C1857.22 88.1357 1855.32 88.924 1851.54 88.924C1842.71 88.924 1834.04 88.2933 1825.53 87.032C1817.33 85.7707 1808.81 85.14 1799.98 85.14C1757.41 85.14 1709.8 91.6043 1657.14 104.533C1654.61 120.93 1652.25 137.801 1650.04 155.144C1648.15 172.172 1646.42 188.412 1644.84 203.863C1643.26 219.314 1642 232.716 1641.06 244.068C1652.09 243.437 1662.81 242.964 1673.22 242.649C1683.94 242.334 1694.19 242.176 1703.96 242.176C1717.84 242.176 1731.56 242.491 1745.12 243.122C1758.67 243.753 1770.03 244.856 1779.17 246.433C1788.32 247.694 1792.89 249.586 1792.89 252.109C1792.89 253.055 1792.26 254.001 1791 254.947C1790.05 255.578 1788.95 255.893 1787.69 255.893C1781.06 255.893 1774.13 255.42 1766.87 254.474C1759.62 253.528 1752.21 253.055 1744.64 253.055C1729.19 253.055 1712.64 254.001 1694.98 255.893C1677.63 257.47 1659.19 259.835 1639.64 262.988C1637.74 285.061 1635.85 307.765 1633.96 331.1C1632.38 354.119 1631.28 373.985 1630.65 390.698C1630.33 400.473 1628.6 408.987 1625.45 416.24C1622.61 423.493 1616.93 428.853 1608.42 432.322ZM1615.04 386.914C1614.72 380.923 1614.41 374.616 1614.09 367.994C1614.09 361.057 1614.09 353.804 1614.09 346.236C1614.09 334.253 1614.25 321.64 1614.57 308.396C1614.88 294.837 1615.36 280.962 1615.99 266.772C1605.26 268.664 1594.23 270.714 1582.88 272.921C1571.52 275.128 1559.86 277.493 1547.87 280.016C1558.28 284.431 1567.58 290.737 1575.78 298.936C1583.98 306.819 1591.23 317.698 1597.54 331.573C1604.16 345.448 1609.99 363.895 1615.04 386.914Z" fill="white"/>
</svg>
