<svg width="162" height="36" viewBox="0 0 162 36" fill="none" xmlns="http://www.w3.org/2000/svg">
<g clip-path="url(#clip0_14_41)">
<path d="M7.47845 13.6931C7.5304 13.5219 7.81561 13.3651 7.94594 13.2607C9.08155 12.3505 10.0548 11.2818 10.9733 10.1591C12.6503 8.10934 13.6554 5.74748 14.1288 3.17323C14.3636 1.89604 13.8987 5.76205 13.6839 7.04269C13.1441 10.2615 12.4798 13.4421 11.6933 16.6119C11.1693 18.7241 10.567 20.8164 10.1325 22.9492C10.0589 23.3108 10.0038 23.9308 9.85357 24.2278" stroke="#FFFAFA" stroke-width="3" stroke-linecap="round"/>
<path d="M4.22119 12.4182C4.29473 12.0546 4.80749 11.7641 5.08829 11.5757C6.62315 10.5459 8.49211 9.76944 10.2532 9.23092C13.3634 8.27988 16.6575 8.05785 19.8969 8.00448C20.8294 7.98911 22.05 7.93575 22.7771 8.63819C23.33 9.17214 23.2377 10.0446 23.0939 10.7258C22.7741 12.2409 21.2095 13.5774 20.1269 14.5579C17.7034 16.7529 14.7796 18.3153 11.7537 19.5308" stroke="#FFFAFA" stroke-width="3" stroke-linecap="round"/>
<path d="M17.3182 3.82935C17.3182 4.40586 17.316 4.97972 17.273 5.55533C17.0722 8.24425 16.8719 10.9258 16.7225 13.6186C16.5646 16.4681 16.1456 19.2987 15.7613 22.1253C15.7406 22.277 15.5545 23.5569 15.6218 23.5569" stroke="#FFFAFA" stroke-width="3" stroke-linecap="round"/>
<path d="M15.9609 21.1413C16.0424 20.9436 16.1556 20.8176 16.3229 20.679C16.892 20.2077 17.5008 19.7766 18.0948 19.337C20.6075 17.4779 23.5036 16.0046 26.306 14.6288C27.7964 13.897 29.3533 13.2724 30.8036 12.463C30.9398 12.3869 31.5431 12.1498 31.0938 12.1498" stroke="#FFFAFA" stroke-width="3" stroke-linecap="round"/>
<path d="M16.0967 20.94C19.2976 20.94 22.4336 20.9871 25.6198 21.3724C29.8009 21.8779 33.9466 22.6732 38.0382 23.6612C38.8266 23.8517 39.6043 24.0573 40.353 24.3695C40.4847 24.4244 40.5932 24.4692 40.73 24.4963" stroke="#FFFAFA" stroke-width="3" stroke-linecap="round"/>
<path d="M4.13823 20.503C3.7802 20.6858 3.41596 20.5177 3.05812 23.0001C2.84968 24.4458 3.17984 25.9874 4.40819 27.4687C5.09369 28.2954 6.18189 28.9145 7.25382 29.3211C8.15342 29.6622 9.42471 29.8273 10.3548 29.903C11.5267 29.9984 13.4398 30.0229 14.6263 29.9789C17.8005 29.8614 20.9148 28.6271 23.4438 26.905C24.7692 26.0025 25.9606 24.9006 26.9193 23.6692C28.118 22.1295 28.8691 20.2935 29.6042 18.5435C30.8185 15.6533 31.644 12.6343 32.3585 9.61291C32.5575 8.7712 32.7222 7.92951 32.8883 7.08298C32.893 7.05839 32.8938 7.03243 32.9049 7.0096C32.9293 6.95949 32.9104 7.11921 32.9104 7.17404C32.9104 7.77741 32.9377 8.38011 32.9631 8.98295C33.0485 11.0081 33.1459 13.0377 33.3681 15.0548C33.4513 15.8102 33.5467 16.5785 33.7647 17.314C33.8403 17.5687 33.9571 17.8657 34.2252 18.0072C34.9166 18.372 35.5906 15.8838 35.6674 15.6493C36.3326 13.6207 36.7612 11.529 37.2484 9.46111C37.3599 8.98799 37.463 8.49962 37.6312 8.03929C37.7362 7.75188 37.7353 8.43777 37.7366 8.45166C37.8954 10.1374 38.1422 11.8215 38.5188 13.4786C38.7577 14.5301 39.0802 15.6113 39.5839 16.5854C39.6641 16.7406 39.7674 17.0459 40 17.0459" stroke="#FFFAFA" stroke-width="3" stroke-linecap="round"/>
</g>
<path d="M70.92 28.3C69.82 28.3 68.87 28.11 68.07 27.73C67.27 27.33 66.61 26.8 66.09 26.14C65.59 25.46 65.21 24.69 64.95 23.83C64.71 22.97 64.57 22.06 64.53 21.1C64.51 20.78 64.5 20.48 64.5 20.2C64.5 19.92 64.51 19.62 64.53 19.3C64.57 18.36 64.71 17.46 64.95 16.6C65.21 15.74 65.59 14.97 66.09 14.29C66.61 13.61 67.27 13.08 68.07 12.7C68.87 12.3 69.82 12.1 70.92 12.1C72.1 12.1 73.08 12.31 73.86 12.73C74.64 13.15 75.28 13.67 75.78 14.29V7.39C75.78 7.19 75.84 7.03 75.96 6.91C76.1 6.77 76.27 6.7 76.47 6.7H77.91C78.11 6.7 78.27 6.77 78.39 6.91C78.53 7.03 78.6 7.19 78.6 7.39V27.31C78.6 27.51 78.53 27.68 78.39 27.82C78.27 27.94 78.11 28 77.91 28H76.56C76.34 28 76.17 27.94 76.05 27.82C75.93 27.68 75.87 27.51 75.87 27.31V26.05C75.37 26.69 74.72 27.23 73.92 27.67C73.12 28.09 72.12 28.3 70.92 28.3ZM71.55 25.87C72.55 25.87 73.35 25.64 73.95 25.18C74.55 24.72 75 24.14 75.3 23.44C75.6 22.72 75.76 21.99 75.78 21.25C75.8 20.93 75.81 20.55 75.81 20.11C75.81 19.65 75.8 19.26 75.78 18.94C75.76 18.24 75.59 17.55 75.27 16.87C74.97 16.19 74.51 15.63 73.89 15.19C73.29 14.75 72.51 14.53 71.55 14.53C70.53 14.53 69.72 14.76 69.12 15.22C68.52 15.66 68.09 16.25 67.83 16.99C67.57 17.71 67.42 18.49 67.38 19.33C67.36 19.91 67.36 20.49 67.38 21.07C67.42 21.91 67.57 22.7 67.83 23.44C68.09 24.16 68.52 24.75 69.12 25.21C69.72 25.65 70.53 25.87 71.55 25.87ZM83.7818 28C83.5818 28 83.4118 27.94 83.2718 27.82C83.1518 27.68 83.0918 27.51 83.0918 27.31V7.39C83.0918 7.19 83.1518 7.03 83.2718 6.91C83.4118 6.77 83.5818 6.7 83.7818 6.7H85.1918C85.3918 6.7 85.5518 6.77 85.6718 6.91C85.8118 7.03 85.8818 7.19 85.8818 7.39V17.83L91.7918 12.91C92.0318 12.71 92.2118 12.58 92.3318 12.52C92.4718 12.44 92.6918 12.4 92.9918 12.4H94.5818C94.7618 12.4 94.9118 12.46 95.0318 12.58C95.1518 12.7 95.2118 12.85 95.2118 13.03C95.2118 13.11 95.1818 13.2 95.1218 13.3C95.0818 13.4 94.9918 13.5 94.8518 13.6L87.9218 19.36L95.6018 26.83C95.8418 27.03 95.9618 27.21 95.9618 27.37C95.9618 27.55 95.9018 27.7 95.7818 27.82C95.6618 27.94 95.5118 28 95.3318 28H93.7718C93.4718 28 93.2518 27.97 93.1118 27.91C92.9718 27.83 92.7918 27.69 92.5718 27.49L85.8818 21.1V27.31C85.8818 27.51 85.8118 27.68 85.6718 27.82C85.5518 27.94 85.3918 28 85.1918 28H83.7818ZM99.2205 28C99.0205 28 98.8505 27.94 98.7105 27.82C98.5905 27.68 98.5305 27.51 98.5305 27.31V13.09C98.5305 12.89 98.5905 12.73 98.7105 12.61C98.8505 12.47 99.0205 12.4 99.2205 12.4H100.571C100.771 12.4 100.931 12.47 101.051 12.61C101.191 12.73 101.261 12.89 101.261 13.09V14.14C101.721 13.52 102.301 13.03 103.001 12.67C103.701 12.29 104.541 12.1 105.521 12.1C107.781 12.08 109.381 13 110.321 14.86C110.781 14.02 111.451 13.35 112.331 12.85C113.211 12.35 114.211 12.1 115.331 12.1C116.371 12.1 117.311 12.34 118.151 12.82C119.011 13.3 119.681 14.03 120.161 15.01C120.661 15.97 120.911 17.18 120.911 18.64V27.31C120.911 27.51 120.841 27.68 120.701 27.82C120.581 27.94 120.421 28 120.221 28H118.811C118.611 28 118.441 27.94 118.301 27.82C118.181 27.68 118.121 27.51 118.121 27.31V18.91C118.121 17.79 117.961 16.91 117.641 16.27C117.321 15.63 116.891 15.18 116.351 14.92C115.811 14.66 115.221 14.53 114.581 14.53C114.061 14.53 113.531 14.66 112.991 14.92C112.451 15.18 112.001 15.63 111.641 16.27C111.301 16.91 111.131 17.79 111.131 18.91V27.31C111.131 27.51 111.061 27.68 110.921 27.82C110.801 27.94 110.641 28 110.441 28H109.031C108.831 28 108.661 27.94 108.521 27.82C108.401 27.68 108.341 27.51 108.341 27.31V18.91C108.341 17.79 108.171 16.91 107.831 16.27C107.491 15.63 107.051 15.18 106.511 14.92C105.971 14.66 105.401 14.53 104.801 14.53C104.281 14.53 103.751 14.66 103.211 14.92C102.671 15.18 102.221 15.63 101.861 16.27C101.521 16.91 101.351 17.78 101.351 18.88V27.31C101.351 27.51 101.281 27.68 101.141 27.82C101.021 27.94 100.861 28 100.661 28H99.2205ZM127.206 28C127.006 28 126.836 27.94 126.696 27.82C126.576 27.68 126.516 27.51 126.516 27.31V14.8H123.966C123.766 14.8 123.596 14.74 123.456 14.62C123.336 14.48 123.276 14.31 123.276 14.11V13.09C123.276 12.89 123.336 12.73 123.456 12.61C123.596 12.47 123.766 12.4 123.966 12.4H126.516V10.9C126.516 9.88 126.686 8.99 127.026 8.23C127.366 7.45 127.906 6.85 128.646 6.43C129.406 6.01 130.416 5.8 131.676 5.8H133.476C133.676 5.8 133.836 5.87 133.956 6.01C134.076 6.13 134.136 6.29 134.136 6.49V7.51C134.136 7.71 134.076 7.88 133.956 8.02C133.836 8.14 133.676 8.2 133.476 8.2H131.736C130.796 8.2 130.156 8.45 129.816 8.95C129.476 9.43 129.306 10.13 129.306 11.05V12.4H133.176C133.376 12.4 133.536 12.47 133.656 12.61C133.776 12.73 133.836 12.89 133.836 13.09V14.11C133.836 14.31 133.776 14.48 133.656 14.62C133.536 14.74 133.376 14.8 133.176 14.8H129.306V27.31C129.306 27.51 129.236 27.68 129.096 27.82C128.976 27.94 128.816 28 128.616 28H127.206ZM136.199 28C135.999 28 135.829 27.94 135.689 27.82C135.569 27.68 135.509 27.51 135.509 27.31V26.26C135.509 26.08 135.549 25.91 135.629 25.75C135.729 25.59 135.829 25.44 135.929 25.3L144.209 14.77H136.469C136.269 14.77 136.099 14.71 135.959 14.59C135.839 14.47 135.779 14.3 135.779 14.08V13.09C135.779 12.89 135.839 12.73 135.959 12.61C136.099 12.47 136.269 12.4 136.469 12.4H147.149C147.349 12.4 147.509 12.47 147.629 12.61C147.769 12.73 147.839 12.89 147.839 13.09V14.2C147.839 14.38 147.789 14.54 147.689 14.68C147.609 14.82 147.519 14.97 147.419 15.13L139.229 25.63H147.749C147.949 25.63 148.109 25.69 148.229 25.81C148.369 25.93 148.439 26.1 148.439 26.32V27.31C148.439 27.51 148.369 27.68 148.229 27.82C148.109 27.94 147.949 28 147.749 28H136.199ZM154.013 28C153.813 28 153.643 27.94 153.503 27.82C153.383 27.68 153.323 27.51 153.323 27.31V14.8H150.773C150.573 14.8 150.403 14.74 150.263 14.62C150.143 14.48 150.083 14.31 150.083 14.11V13.09C150.083 12.89 150.143 12.73 150.263 12.61C150.403 12.47 150.573 12.4 150.773 12.4H153.323V10.9C153.323 9.88 153.493 8.99 153.833 8.23C154.173 7.45 154.713 6.85 155.453 6.43C156.213 6.01 157.223 5.8 158.483 5.8H160.283C160.483 5.8 160.643 5.87 160.763 6.01C160.883 6.13 160.943 6.29 160.943 6.49V7.51C160.943 7.71 160.883 7.88 160.763 8.02C160.643 8.14 160.483 8.2 160.283 8.2H158.543C157.603 8.2 156.963 8.45 156.623 8.95C156.283 9.43 156.113 10.13 156.113 11.05V12.4H159.983C160.183 12.4 160.343 12.47 160.463 12.61C160.583 12.73 160.643 12.89 160.643 13.09V14.11C160.643 14.31 160.583 14.48 160.463 14.62C160.343 14.74 160.183 14.8 159.983 14.8H156.113V27.31C156.113 27.51 156.043 27.68 155.903 27.82C155.783 27.94 155.623 28 155.423 28H154.013Z" fill="white"/>
<defs>
<clipPath id="clip0_14_41">
<rect width="43" height="32" fill="white" transform="translate(0 2)"/>
</clipPath>
</defs>
</svg>
